<mxfile host="app.diagrams.net" modified="2023-11-23T08:38:05.697Z" agent="Mozilla/5.0 (Windows NT 10.0; Win64; x64) AppleWebKit/537.36 (KHTML, like Gecko) Chrome/119.0.0.0 Safari/537.36" etag="gmJOKF-jE6Z2OSeqyvR2" version="22.1.3" type="github">
  <diagram name="Page-1" id="p0gM1xDEvpFmaKKsH8pF">
    <mxGraphModel dx="1195" dy="625" grid="1" gridSize="10" guides="1" tooltips="1" connect="1" arrows="1" fold="1" page="1" pageScale="1" pageWidth="850" pageHeight="1100" math="0" shadow="0">
      <root>
        <mxCell id="0" />
        <mxCell id="1" parent="0" />
        <mxCell id="t2_oQDNgdoTVTTn2zNBj-1" value="" style="rounded=0;whiteSpace=wrap;html=1;" vertex="1" parent="1">
          <mxGeometry x="20" y="130" width="760" height="480" as="geometry" />
        </mxCell>
        <mxCell id="t2_oQDNgdoTVTTn2zNBj-2" value="" style="rounded=1;whiteSpace=wrap;html=1;" vertex="1" parent="1">
          <mxGeometry x="130" y="310" width="110" height="30" as="geometry" />
        </mxCell>
        <mxCell id="t2_oQDNgdoTVTTn2zNBj-3" value="" style="rounded=1;whiteSpace=wrap;html=1;" vertex="1" parent="1">
          <mxGeometry x="130" y="270" width="190" height="30" as="geometry" />
        </mxCell>
        <mxCell id="t2_oQDNgdoTVTTn2zNBj-4" value="" style="endArrow=none;html=1;rounded=0;exitX=0.145;exitY=0.271;exitDx=0;exitDy=0;exitPerimeter=0;entryX=0.276;entryY=0.271;entryDx=0;entryDy=0;entryPerimeter=0;" edge="1" parent="1" source="t2_oQDNgdoTVTTn2zNBj-1" target="t2_oQDNgdoTVTTn2zNBj-1">
          <mxGeometry width="50" height="50" relative="1" as="geometry">
            <mxPoint x="400" y="410" as="sourcePoint" />
            <mxPoint x="450" y="360" as="targetPoint" />
          </mxGeometry>
        </mxCell>
        <mxCell id="t2_oQDNgdoTVTTn2zNBj-7" value="" style="rounded=0;whiteSpace=wrap;html=1;" vertex="1" parent="1">
          <mxGeometry x="20" y="130" width="760" height="50" as="geometry" />
        </mxCell>
        <mxCell id="t2_oQDNgdoTVTTn2zNBj-9" value="Autotask Pakbon export" style="text;strokeColor=none;align=center;fillColor=none;html=1;verticalAlign=middle;whiteSpace=wrap;rounded=0;fontSize=17;" vertex="1" parent="1">
          <mxGeometry x="30" y="140" width="200" height="30" as="geometry" />
        </mxCell>
        <mxCell id="t2_oQDNgdoTVTTn2zNBj-12" value="Ticket nummer" style="text;strokeColor=none;align=center;fillColor=none;html=1;verticalAlign=middle;whiteSpace=wrap;rounded=0;" vertex="1" parent="1">
          <mxGeometry x="110" y="230" width="130" height="30" as="geometry" />
        </mxCell>
        <mxCell id="t2_oQDNgdoTVTTn2zNBj-14" value="Download" style="text;strokeColor=none;align=center;fillColor=none;html=1;verticalAlign=middle;whiteSpace=wrap;rounded=0;" vertex="1" parent="1">
          <mxGeometry x="140" y="310" width="90" height="30" as="geometry" />
        </mxCell>
        <mxCell id="t2_oQDNgdoTVTTn2zNBj-15" value="Deze tool is voor het downloaden van een pakbon. het bestand die deze tool teruggeeft is in pdf formaat." style="text;strokeColor=none;align=left;fillColor=none;html=1;verticalAlign=middle;whiteSpace=wrap;rounded=0;" vertex="1" parent="1">
          <mxGeometry x="130" y="330" width="290" height="90" as="geometry" />
        </mxCell>
      </root>
    </mxGraphModel>
  </diagram>
</mxfile>
